# xmcd
#
# Track frame offsets: 
#        150
#        13489
#        27040
#
# Disc length: 543 seconds
#
# Revision: 1
# Processed by: cddbd v1.5.2PL0 Copyright (c) Steve Scherf et al.
# Submitted via: ExactAudioCopy v0.95a3
#
DISCID=1c021d03
DTITLE=Yasmine-Mélanie - Amore Fantastico
DYEAR=2009
DGENRE=
TTITLE0=Amore Fantastico
TTITLE1=Eine Zuviel
TTITLE2=Du Hast Die Liebe Mitgebracht
EXTD=
EXTT0=
EXTT1=
EXTT2=
PLAYORDER=
